<svg xmlns="http://www.w3.org/2000/svg" width="28" height="19.99" viewBox="0 0 28 19.99">
  <g id="_4691347_php_icon_1" data-name="4691347_php_icon 1" transform="translate(0 -9.006)">
    <path id="Vector" d="M8.178,7.155h-1.1l-.6,4.193h.978a1.922,1.922,0,0,0,1.449-.5A3.006,3.006,0,0,0,9.544,9.19,2.37,2.37,0,0,0,9.4,7.614a1.374,1.374,0,0,0-1.222-.459ZM14,0C6.269,0,0,4.474,0,9.994s6.269,10,14,10,14-4.476,14-10S21.732,0,14,0ZM10.2,11.8a2.828,2.828,0,0,1-1.07.872,3.77,3.77,0,0,1-1.5.26H6.25l-.381,2.662H4.261L5.7,5.575H8.787a2.241,2.241,0,0,1,2.035.994,4.011,4.011,0,0,1,.385,2.774,5.606,5.606,0,0,1-.356,1.341A4.571,4.571,0,0,1,10.2,11.8Zm4.695,1.132L15.525,8.5a1.569,1.569,0,0,0-.079-1.031.922.922,0,0,0-.8-.276H13.37l-.821,5.74h-1.6L12.388,2.913h1.595L13.6,5.576h1.421a2.264,2.264,0,0,1,1.85.635,2.678,2.678,0,0,1,.307,2.057l-.667,4.661Zm8.863-3.586a5.5,5.5,0,0,1-.356,1.341,4.571,4.571,0,0,1-.654,1.113,2.843,2.843,0,0,1-1.07.872,3.773,3.773,0,0,1-1.5.26H18.8l-.382,2.663H16.808L18.243,5.576h3.09a2.241,2.241,0,0,1,2.035.994,4,4,0,0,1,.386,2.772ZM20.727,7.155h-1.1l-.6,4.193H20a1.918,1.918,0,0,0,1.449-.5,3.015,3.015,0,0,0,.643-1.661,2.369,2.369,0,0,0-.146-1.575,1.374,1.374,0,0,0-1.221-.459Z" transform="translate(0 9.006)"/>
  </g>
</svg>
