<svg xmlns="http://www.w3.org/2000/svg" width="28" height="32.001" viewBox="0 0 28 32.001">
  <g id="_1156660_ecommerce_logo_shopify_icon_1" data-name="1156660_ecommerce_logo_shopify_icon 1" transform="translate(-770 -1453)">
    <g id="Group">
      <g id="Group-2" data-name="Group">
        <path id="Vector" d="M24.245,5.972c-.115-.011-2.561-.192-2.561-.192L19.8,3.9a.767.767,0,0,0-.693-.089l-.951.294C17.585,2.46,16.583.951,14.821.951c-.049,0-.1,0-.15.005A2.142,2.142,0,0,0,13.012,0C8.906,0,6.944,5.16,6.329,7.782c-1.6.5-2.731.849-2.874.9-.892.281-.92.309-1.035,1.152C2.331,10.468,0,28.582,0,28.582L18.16,32,28,29.861S24.546,6.392,24.524,6.231A.308.308,0,0,0,24.245,5.972Zm-9.709-.922c0,.062,0,.12,0,.178l-3.174.988c.611-2.37,1.756-3.516,2.759-3.947A7.718,7.718,0,0,1,14.536,5.049ZM12.9,1.108a.92.92,0,0,1,.528.179C12.11,1.908,10.7,3.477,10.1,6.607L7.6,7.388C8.293,5,9.949,1.108,12.9,1.108Zm.708,13.954a5.56,5.56,0,0,0-2.365-.57C9.33,14.492,9.234,15.7,9.234,16c0,1.657,4.3,2.292,4.3,6.172,0,3.053-1.926,5.018-4.525,5.018a6.285,6.285,0,0,1-4.712-1.95l.834-2.771a5.953,5.953,0,0,0,3.023,1.415,1.222,1.222,0,0,0,1.27-1.238c0-2.161-3.525-2.258-3.525-5.809,0-2.987,2.134-5.881,6.444-5.881a5.278,5.278,0,0,1,2.48.479ZM15.613,4.893c0-.109,0-.216,0-.334a7.607,7.607,0,0,0-.368-2.493c.908.114,1.514,1.153,1.9,2.348C16.693,4.557,16.175,4.718,15.613,4.893Z" transform="translate(770 1453)" fill="#95c675"/>
      </g>
      <g id="Group-3" data-name="Group">
        <path id="Vector-2" data-name="Vector" d="M24.245,5.972c-.115-.011-2.561-.192-2.561-.192L19.8,3.9a.767.767,0,0,0-.693-.089l-.951.294C17.585,2.46,16.583.951,14.821.951c-.049,0-.1,0-.15.005A2.142,2.142,0,0,0,13.012,0C8.906,0,7.893,5.16,7.278,7.782c-1.6.5-2.821,3.225-2.965,3.27-.891.281-.919.309-1.035,1.153C3.188,12.843,0,28.582,0,28.582L18.16,32,28,29.861S24.546,6.392,24.524,6.231A.308.308,0,0,0,24.245,5.972Zm-9.709-.922c0,.062,0,.12,0,.178l-3.174.988c.611-2.37,1.756-3.516,2.759-3.947A7.718,7.718,0,0,1,14.536,5.049ZM12.9,1.108a.92.92,0,0,1,.528.179C12.11,1.908,10.7,3.477,10.1,6.607L7.6,7.388C8.293,5,9.949,1.108,12.9,1.108Zm.708,13.954a5.56,5.56,0,0,0-2.365-.57C9.33,14.492,9.234,15.7,9.234,16c0,1.657,4.3,2.292,4.3,6.172,0,3.053-1.926,5.018-4.525,5.018a6.285,6.285,0,0,1-4.712-1.95l.834-2.771a5.953,5.953,0,0,0,3.023,1.415,1.222,1.222,0,0,0,1.27-1.238c0-2.161-3.525-2.258-3.525-5.809,0-2.987,2.134-5.881,6.444-5.881a5.278,5.278,0,0,1,2.48.479ZM15.613,4.893c0-.109,0-.216,0-.334a7.607,7.607,0,0,0-.368-2.493c.908.114,1.514,1.153,1.9,2.348C16.693,4.557,16.175,4.718,15.613,4.893Z" transform="translate(770 1453)" fill="#79b259"/>
      </g>
      <path id="Vector-3" data-name="Vector" d="M.2,28.234l9.84-2.139S6.591,2.626,6.57,2.465a.307.307,0,0,0-.279-.259c-.115-.011-2.561-.192-2.561-.192L1.842.13A.542.542,0,0,0,1.453,0a4.027,4.027,0,0,0-.3,1.834L0,28.195Z" transform="translate(787.955 1456.766)" fill="#55932c"/>
      <path id="Vector-4" data-name="Vector" d="M8.485.951c-.049,0-.1,0-.15.005A2.142,2.142,0,0,0,6.676,0C2.586,0,.623,5.119,0,7.75l1.269-.394c.7-2.39,2.357-6.25,5.294-6.25a.92.92,0,0,1,.528.179c-1.313.62-2.719,2.182-3.317,5.3l1.26-.389C5.646,3.838,6.786,2.7,7.785,2.268A7.732,7.732,0,0,1,8.2,5.049c0,.056,0,.109,0,.163l1.077-.333c0-.1,0-.207,0-.32a7.607,7.607,0,0,0-.368-2.493c.905.113,1.51,1.147,1.9,2.337l1-.312C11.245,2.454,10.244.951,8.485.951Z" transform="translate(776.336 1453)" fill="#4a7a2b"/>
      <path id="Vector-5" data-name="Vector" d="M4.14,2.044l-.411-.031L1.842.13A.542.542,0,0,0,1.453,0a4.027,4.027,0,0,0-.3,1.834L0,28.195l.205.039L5.441,27.1Z" transform="translate(787.954 1456.766)" fill="#4c822a"/>
    </g>
  </g>
</svg>
