<svg xmlns="http://www.w3.org/2000/svg" width="28" height="28" viewBox="0 0 28 28">
  <g id="Group" transform="translate(-346 -1455)">
    <path id="Vector" d="M28,14A14,14,0,1,1,14,0,14,14,0,0,1,28,14Z" transform="translate(346 1455)" fill="#4353ff"/>
    <path id="Vector-2" data-name="Vector" d="M10.728,2.94l-1.269,4C9.459,6.632,8.584,0,8.584,0,6.571,0,5.5,1.426,4.944,2.94L3.395,6.947c0-.289-.219-3.973-.219-3.973A3.272,3.272,0,0,0,2.152.889,3.273,3.273,0,0,0,0,.009L1.645,10.054a4.046,4.046,0,0,0,3.824-2.94L6.781,3.7c0,.14.875,6.352.875,6.352a4.043,4.043,0,0,0,3.85-2.826L14.481,0a3.946,3.946,0,0,0-3.762,2.94Z" transform="translate(353.385 1464.397)" fill="#fff"/>
  </g>
</svg>
